<?xml version="1.0" standalone="no"?>
<!DOCTYPE svg PUBLIC "-//W3C//DTD SVG 20010904//EN"
 "http://www.w3.org/TR/2001/REC-SVG-20010904/DTD/svg10.dtd">
<svg version="1.0" xmlns="http://www.w3.org/2000/svg"
 width="358.000000pt" height="341.000000pt" viewBox="0 0 358.000000 341.000000"
 preserveAspectRatio="xMidYMid meet">

<g transform="translate(0.000000,341.000000) scale(0.100000,-0.100000)"
fill="#000000" stroke="none">
<path d="M1350 2155 l0 -585 485 0 485 0 0 585 0 585 -485 0 -485 0 0 -585z
m910 0 l0 -525 -425 0 -425 0 0 525 0 525 425 0 425 0 0 -525z"/>
<path d="M1964 2512 c-171 -124 -333 -350 -393 -546 -31 -101 -12 -176 45
-176 12 0 35 -5 50 -10 21 -8 32 -7 53 7 28 18 100 89 145 143 15 19 44 52 62
73 20 22 34 48 34 63 0 23 -7 17 -60 -47 -86 -108 -219 -219 -261 -219 -20 0
-21 4 -21 91 0 143 209 452 389 576 50 34 52 37 36 55 -22 24 -33 23 -79 -10z"/>
<path d="M2070 2489 c0 -51 -134 -267 -200 -323 -27 -22 -28 -25 -11 -31 66
-21 192 121 247 279 14 38 14 41 -11 65 -18 19 -25 21 -25 10z"/>
<path d="M1059 1378 c-17 -32 -100 -143 -109 -146 -4 -2 -10 7 -13 20 -3 13
-14 46 -24 73 -15 40 -23 50 -42 51 -28 1 -26 -14 18 -136 30 -84 40 -160 21
-160 -16 0 -12 -50 5 -56 8 -4 15 -13 15 -21 0 -12 3 -13 14 -4 7 6 16 38 20
71 10 88 39 145 136 272 l20 26 -22 -6 c-20 -5 -21 -3 -10 10 10 13 10 17 -3
21 -9 4 -19 -2 -26 -15z m-27 -113 c-45 -71 -62 -89 -62 -64 0 16 89 139 100
139 5 0 -12 -34 -38 -75z"/>
<path d="M1183 1391 c-6 -3 -11 -30 -12 -58 -1 -29 -10 -90 -21 -135 -30 -130
-32 -145 -15 -162 8 -8 15 -20 15 -27 0 -8 4 -8 13 -1 7 6 23 9 35 5 27 -7
166 48 207 82 l30 25 -45 -25 c-66 -36 -81 -30 -24 10 27 19 55 33 62 30 18
-7 -25 53 -49 68 -13 8 -15 15 -8 23 8 9 5 11 -10 7 -30 -8 -26 5 14 42 l35
32 -21 27 c-11 14 -33 32 -47 40 -30 15 -144 27 -159 17z m180 -59 c-2 -6 2
-12 7 -12 16 0 11 -18 -10 -38 -15 -14 -37 -20 -75 -21 -54 -1 -55 0 -55 28 0
35 15 48 60 54 52 6 75 3 73 -11z m5 -144 c-2 -4 6 -14 17 -22 l20 -15 -20 -6
c-11 -4 -45 -18 -76 -31 -62 -26 -109 -31 -109 -11 0 6 3 29 7 50 l6 39 58 -4
c31 -2 55 1 52 5 -3 5 7 7 21 5 15 -2 25 -6 24 -10z"/>
<path d="M1522 1391 c-19 -12 -40 -131 -40 -225 0 -43 -4 -81 -9 -85 -15 -10
-23 -40 -12 -46 15 -10 198 17 196 28 -1 6 9 13 22 16 14 4 27 13 29 20 4 12
-14 13 -102 8 l-106 -6 0 35 c0 24 5 34 15 34 8 0 15 6 15 14 0 10 18 15 63
18 34 3 76 11 92 18 l30 12 -25 10 c-14 5 -51 8 -82 5 -32 -3 -58 -3 -58 0 0
2 5 24 11 49 l11 44 55 0 c59 0 93 13 93 34 0 8 -7 17 -16 20 -24 9 -167 7
-182 -3z"/>
<path d="M1792 1377 l-43 -23 26 -12 c26 -12 27 -15 20 -60 -4 -26 -10 -51
-13 -57 -14 -21 -32 -82 -38 -125 -5 -35 -2 -49 10 -59 9 -7 16 -10 16 -6 0 4
6 2 14 -4 11 -9 14 -9 13 1 -3 29 16 138 23 138 4 0 22 -25 39 -55 18 -31 36
-53 41 -50 6 4 13 -2 17 -12 4 -10 11 -21 17 -25 6 -4 11 -12 11 -18 0 -15 56
-49 71 -43 17 6 6 27 -68 120 -32 40 -58 77 -58 82 0 5 8 12 18 15 11 4 30 19
43 33 13 15 16 21 6 14 -28 -22 -29 -8 -1 33 20 29 24 42 17 63 -22 64 -110
88 -181 50z m162 -50 c12 -19 -8 -67 -33 -75 -8 -3 -11 0 -7 7 11 17 -6 13
-34 -9 -27 -21 -50 -26 -50 -10 0 5 5 32 11 60 l11 51 45 -3 c31 -2 50 -9 57
-21z"/>
<path d="M2085 1390 c3 -5 -10 -19 -29 -31 -38 -22 -39 -37 -3 -76 l20 -23
-20 -67 c-23 -77 -24 -190 -2 -204 21 -13 38 28 39 91 l1 55 62 30 c42 20 69
41 84 65 12 19 29 43 37 53 9 9 16 28 16 41 0 42 -25 56 -98 57 -37 1 -70 1
-74 0 -5 0 -8 4 -8 9 0 6 -7 10 -16 10 -8 0 -12 -4 -9 -10z m151 -91 c13 -21
-85 -99 -124 -99 -12 0 -4 80 11 98 12 15 103 16 113 1z"/>
<path d="M2356 1373 c-2 -10 -8 -69 -11 -130 -4 -62 -11 -113 -16 -113 -8 0
-10 -96 -2 -112 2 -4 32 4 66 17 34 13 91 29 127 36 44 9 58 14 45 19 -17 6
-16 8 10 19 25 9 17 10 -55 6 -47 -3 -96 -8 -109 -12 l-24 -6 7 114 c4 63 10
124 13 137 4 16 1 22 -11 22 -9 0 -16 5 -16 10 0 17 -18 11 -24 -7z"/>
<path d="M2651 1365 c-10 -25 -28 -129 -32 -190 -1 -17 -2 -16 -10 5 -6 18 -7
12 -3 -20 3 -25 13 -50 21 -57 9 -7 13 -18 10 -26 -6 -17 11 -37 32 -37 11 0
10 4 -5 14 -29 21 -10 30 21 10 23 -15 32 -16 60 -5 30 11 36 10 55 -9 11 -11
20 -28 20 -37 1 -17 1 -17 14 0 9 11 16 62 20 140 4 67 9 142 11 167 3 25 2
39 -1 33 -9 -20 -24 -15 -24 8 0 17 -3 19 -14 10 -11 -9 -15 -9 -19 1 -3 7 -6
-23 -6 -68 -1 -67 -4 -84 -21 -99 -10 -9 -18 -20 -17 -24 2 -10 -27 -51 -37
-51 -5 0 -18 -8 -28 -17 -17 -15 -20 -15 -28 -3 -14 22 -12 85 5 164 8 39 11
72 6 75 -5 4 -11 15 -13 26 -4 17 -6 16 -17 -10z"/>
<path d="M2982 1353 c-97 -70 -104 -110 -24 -138 26 -10 59 -22 75 -27 36 -14
35 -45 -2 -81 -29 -27 -48 -36 -36 -17 3 5 -7 5 -25 -1 -17 -6 -40 -9 -51 -6
-29 8 -21 -31 12 -55 25 -19 27 -19 80 -1 40 13 54 23 54 37 0 11 6 21 14 24
10 3 11 0 5 -9 -6 -11 -4 -11 10 0 9 8 24 27 31 42 14 26 13 28 -28 66 -23 21
-57 45 -75 52 -27 11 -30 16 -20 28 16 20 83 53 108 53 11 0 20 7 20 15 0 8 5
15 12 15 22 0 -6 16 -48 28 -56 16 -52 17 -112 -25z m108 -13 c0 -6 -12 -15
-26 -20 -15 -6 -40 -20 -56 -31 -29 -21 -46 -20 -33 0 6 11 93 60 108 61 4 0
7 -5 7 -10z m-45 -290 c-3 -5 -11 -10 -16 -10 -6 0 -7 5 -4 10 3 6 11 10 16
10 6 0 7 -4 4 -10z"/>
<path d="M638 1327 c-29 -29 -59 -61 -65 -70 -16 -21 -18 -147 -2 -147 7 0 9
-10 7 -25 -4 -16 2 -30 15 -42 19 -18 20 -17 8 5 -15 28 0 29 25 1 27 -30 73
-18 128 36 42 40 57 65 40 65 -4 0 -24 -16 -45 -35 -41 -37 -48 -39 -96 -29
-28 5 -31 10 -36 56 -12 95 50 175 144 186 l54 7 -29 23 c-49 38 -86 30 -148
-31z"/>
<path d="M2611 1274 c0 -11 3 -14 6 -6 3 7 2 16 -1 19 -3 4 -6 -2 -5 -13z"/>
<path d="M1850 10 c0 -7 295 -10 865 -10 570 0 865 3 865 10 0 7 -295 10 -865
10 -570 0 -865 -3 -865 -10z"/>
</g>
</svg>
